<mxfile host="app.diagrams.net" agent="Mozilla/5.0 (Windows NT 10.0; Win64; x64) AppleWebKit/537.36 (KHTML, like Gecko) Chrome/140.0.0.0 Safari/537.36" version="28.2.5">
  <diagram name="Pagina-1" id="IR3UbQKBLLekFKobGCMP">
    <mxGraphModel grid="1" page="1" gridSize="10" guides="1" tooltips="1" connect="1" arrows="1" fold="1" pageScale="1" pageWidth="827" pageHeight="1169" math="0" shadow="0">
      <root>
        <mxCell id="0" />
        <mxCell id="1" parent="0" />
        <mxCell id="j30a4lDo0BElUTcS9kuQ-1" value="&lt;font style=&quot;font-size: 40px;&quot;&gt;+&lt;/font&gt;" style="ellipse;whiteSpace=wrap;html=1;aspect=fixed;" vertex="1" parent="1">
          <mxGeometry x="175" y="330" width="50" height="50" as="geometry" />
        </mxCell>
        <mxCell id="j30a4lDo0BElUTcS9kuQ-2" value="&lt;font style=&quot;font-size: 40px;&quot;&gt;+&lt;/font&gt;" style="ellipse;whiteSpace=wrap;html=1;aspect=fixed;" vertex="1" parent="1">
          <mxGeometry x="295" y="330" width="50" height="50" as="geometry" />
        </mxCell>
        <mxCell id="j30a4lDo0BElUTcS9kuQ-3" value="&lt;font style=&quot;font-size: 40px;&quot;&gt;+&lt;/font&gt;" style="ellipse;whiteSpace=wrap;html=1;aspect=fixed;" vertex="1" parent="1">
          <mxGeometry x="295" y="330" width="50" height="50" as="geometry" />
        </mxCell>
        <mxCell id="j30a4lDo0BElUTcS9kuQ-4" value="&lt;font style=&quot;font-size: 40px;&quot;&gt;+&lt;/font&gt;" style="ellipse;whiteSpace=wrap;html=1;aspect=fixed;" vertex="1" parent="1">
          <mxGeometry x="295" y="330" width="50" height="50" as="geometry" />
        </mxCell>
        <mxCell id="j30a4lDo0BElUTcS9kuQ-5" value="&lt;font style=&quot;font-size: 40px;&quot;&gt;+&lt;/font&gt;" style="ellipse;whiteSpace=wrap;html=1;aspect=fixed;" vertex="1" parent="1">
          <mxGeometry x="295" y="330" width="50" height="50" as="geometry" />
        </mxCell>
        <mxCell id="j30a4lDo0BElUTcS9kuQ-7" value="&lt;font style=&quot;font-size: 40px;&quot;&gt;+&lt;/font&gt;" style="ellipse;whiteSpace=wrap;html=1;aspect=fixed;" vertex="1" parent="1">
          <mxGeometry x="415" y="330" width="50" height="50" as="geometry" />
        </mxCell>
        <mxCell id="j30a4lDo0BElUTcS9kuQ-8" value="&lt;font style=&quot;font-size: 40px;&quot;&gt;+&lt;/font&gt;" style="ellipse;whiteSpace=wrap;html=1;aspect=fixed;" vertex="1" parent="1">
          <mxGeometry x="535" y="330" width="50" height="50" as="geometry" />
        </mxCell>
        <mxCell id="j30a4lDo0BElUTcS9kuQ-9" value="&lt;font style=&quot;font-size: 40px;&quot;&gt;+&lt;/font&gt;" style="ellipse;whiteSpace=wrap;html=1;aspect=fixed;" vertex="1" parent="1">
          <mxGeometry x="655" y="330" width="50" height="50" as="geometry" />
        </mxCell>
        <mxCell id="j30a4lDo0BElUTcS9kuQ-10" value="&lt;font style=&quot;font-size: 40px;&quot;&gt;+&lt;/font&gt;" style="ellipse;whiteSpace=wrap;html=1;aspect=fixed;" vertex="1" parent="1">
          <mxGeometry x="895" y="330" width="50" height="50" as="geometry" />
        </mxCell>
        <mxCell id="j30a4lDo0BElUTcS9kuQ-11" value="&lt;font style=&quot;font-size: 40px;&quot;&gt;+&lt;/font&gt;" style="ellipse;whiteSpace=wrap;html=1;aspect=fixed;" vertex="1" parent="1">
          <mxGeometry x="777" y="330" width="50" height="50" as="geometry" />
        </mxCell>
        <mxCell id="j30a4lDo0BElUTcS9kuQ-12" value="" style="ellipse;whiteSpace=wrap;html=1;aspect=fixed;" vertex="1" parent="1">
          <mxGeometry x="55" y="200" width="50" height="50" as="geometry" />
        </mxCell>
        <mxCell id="j30a4lDo0BElUTcS9kuQ-15" value="&lt;font style=&quot;font-size: 60px;&quot;&gt;*&lt;/font&gt;" style="text;html=1;align=center;verticalAlign=middle;whiteSpace=wrap;rounded=0;" vertex="1" parent="1">
          <mxGeometry x="50" y="223" width="60" height="30" as="geometry" />
        </mxCell>
        <mxCell id="j30a4lDo0BElUTcS9kuQ-17" value="" style="ellipse;whiteSpace=wrap;html=1;aspect=fixed;" vertex="1" parent="1">
          <mxGeometry x="175" y="200" width="50" height="50" as="geometry" />
        </mxCell>
        <mxCell id="j30a4lDo0BElUTcS9kuQ-18" value="&lt;font style=&quot;font-size: 60px;&quot;&gt;*&lt;/font&gt;" style="text;html=1;align=center;verticalAlign=middle;whiteSpace=wrap;rounded=0;" vertex="1" parent="1">
          <mxGeometry x="170" y="223" width="60" height="30" as="geometry" />
        </mxCell>
        <mxCell id="j30a4lDo0BElUTcS9kuQ-20" value="" style="ellipse;whiteSpace=wrap;html=1;aspect=fixed;" vertex="1" parent="1">
          <mxGeometry x="535" y="200" width="50" height="50" as="geometry" />
        </mxCell>
        <mxCell id="j30a4lDo0BElUTcS9kuQ-21" value="&lt;font style=&quot;font-size: 60px;&quot;&gt;*&lt;/font&gt;" style="text;html=1;align=center;verticalAlign=middle;whiteSpace=wrap;rounded=0;" vertex="1" parent="1">
          <mxGeometry x="530" y="223" width="60" height="30" as="geometry" />
        </mxCell>
        <mxCell id="j30a4lDo0BElUTcS9kuQ-22" value="" style="ellipse;whiteSpace=wrap;html=1;aspect=fixed;" vertex="1" parent="1">
          <mxGeometry x="415" y="200" width="50" height="50" as="geometry" />
        </mxCell>
        <mxCell id="j30a4lDo0BElUTcS9kuQ-23" value="&lt;font style=&quot;font-size: 60px;&quot;&gt;*&lt;/font&gt;" style="text;html=1;align=center;verticalAlign=middle;whiteSpace=wrap;rounded=0;" vertex="1" parent="1">
          <mxGeometry x="410" y="223" width="60" height="30" as="geometry" />
        </mxCell>
        <mxCell id="j30a4lDo0BElUTcS9kuQ-24" value="" style="ellipse;whiteSpace=wrap;html=1;aspect=fixed;" vertex="1" parent="1">
          <mxGeometry x="295" y="200" width="50" height="50" as="geometry" />
        </mxCell>
        <mxCell id="j30a4lDo0BElUTcS9kuQ-25" value="&lt;font style=&quot;font-size: 60px;&quot;&gt;*&lt;/font&gt;" style="text;html=1;align=center;verticalAlign=middle;whiteSpace=wrap;rounded=0;" vertex="1" parent="1">
          <mxGeometry x="290" y="223" width="60" height="30" as="geometry" />
        </mxCell>
        <mxCell id="j30a4lDo0BElUTcS9kuQ-26" value="" style="ellipse;whiteSpace=wrap;html=1;aspect=fixed;" vertex="1" parent="1">
          <mxGeometry x="655" y="197" width="50" height="50" as="geometry" />
        </mxCell>
        <mxCell id="j30a4lDo0BElUTcS9kuQ-27" value="&lt;font style=&quot;font-size: 60px;&quot;&gt;*&lt;/font&gt;" style="text;html=1;align=center;verticalAlign=middle;whiteSpace=wrap;rounded=0;" vertex="1" parent="1">
          <mxGeometry x="650" y="220" width="60" height="30" as="geometry" />
        </mxCell>
        <mxCell id="j30a4lDo0BElUTcS9kuQ-31" value="" style="rounded=1;whiteSpace=wrap;html=1;direction=south;" vertex="1" parent="1">
          <mxGeometry x="360" y="80" width="40" height="80" as="geometry" />
        </mxCell>
        <mxCell id="j30a4lDo0BElUTcS9kuQ-36" value="" style="rounded=1;whiteSpace=wrap;html=1;direction=south;" vertex="1" parent="1">
          <mxGeometry x="480" y="80" width="40" height="80" as="geometry" />
        </mxCell>
        <mxCell id="j30a4lDo0BElUTcS9kuQ-37" value="" style="rounded=1;whiteSpace=wrap;html=1;direction=south;" vertex="1" parent="1">
          <mxGeometry x="600" y="80" width="40" height="80" as="geometry" />
        </mxCell>
        <mxCell id="j30a4lDo0BElUTcS9kuQ-38" value="" style="rounded=1;whiteSpace=wrap;html=1;direction=south;" vertex="1" parent="1">
          <mxGeometry x="720" y="80" width="40" height="80" as="geometry" />
        </mxCell>
        <mxCell id="j30a4lDo0BElUTcS9kuQ-39" value="" style="rounded=1;whiteSpace=wrap;html=1;direction=south;" vertex="1" parent="1">
          <mxGeometry x="240" y="80" width="40" height="80" as="geometry" />
        </mxCell>
        <mxCell id="j30a4lDo0BElUTcS9kuQ-40" value="" style="rounded=1;whiteSpace=wrap;html=1;direction=south;" vertex="1" parent="1">
          <mxGeometry x="120" y="80" width="40" height="80" as="geometry" />
        </mxCell>
        <mxCell id="j30a4lDo0BElUTcS9kuQ-41" value="" style="endArrow=classic;html=1;rounded=0;entryX=0.5;entryY=1;entryDx=0;entryDy=0;" edge="1" parent="1" target="j30a4lDo0BElUTcS9kuQ-40">
          <mxGeometry width="50" height="50" relative="1" as="geometry">
            <mxPoint x="40" y="120" as="sourcePoint" />
            <mxPoint x="440" y="230" as="targetPoint" />
          </mxGeometry>
        </mxCell>
        <mxCell id="j30a4lDo0BElUTcS9kuQ-42" value="" style="endArrow=classic;html=1;rounded=0;exitX=0.5;exitY=0;exitDx=0;exitDy=0;entryX=0.5;entryY=1;entryDx=0;entryDy=0;" edge="1" parent="1" source="j30a4lDo0BElUTcS9kuQ-40" target="j30a4lDo0BElUTcS9kuQ-39">
          <mxGeometry width="50" height="50" relative="1" as="geometry">
            <mxPoint x="130" y="330" as="sourcePoint" />
            <mxPoint x="180" y="280" as="targetPoint" />
          </mxGeometry>
        </mxCell>
        <mxCell id="j30a4lDo0BElUTcS9kuQ-43" value="" style="endArrow=classic;html=1;rounded=0;exitX=0.5;exitY=0;exitDx=0;exitDy=0;entryX=0.5;entryY=1;entryDx=0;entryDy=0;" edge="1" parent="1">
          <mxGeometry width="50" height="50" relative="1" as="geometry">
            <mxPoint x="280" y="119.5" as="sourcePoint" />
            <mxPoint x="360" y="119.5" as="targetPoint" />
          </mxGeometry>
        </mxCell>
        <mxCell id="j30a4lDo0BElUTcS9kuQ-44" value="" style="endArrow=classic;html=1;rounded=0;exitX=0.5;exitY=0;exitDx=0;exitDy=0;entryX=0.5;entryY=1;entryDx=0;entryDy=0;" edge="1" parent="1" source="j30a4lDo0BElUTcS9kuQ-31" target="j30a4lDo0BElUTcS9kuQ-36">
          <mxGeometry width="50" height="50" relative="1" as="geometry">
            <mxPoint x="330" y="130" as="sourcePoint" />
            <mxPoint x="410" y="130" as="targetPoint" />
          </mxGeometry>
        </mxCell>
        <mxCell id="j30a4lDo0BElUTcS9kuQ-46" value="" style="endArrow=classic;html=1;rounded=0;exitX=0.5;exitY=0;exitDx=0;exitDy=0;entryX=0.5;entryY=1;entryDx=0;entryDy=0;" edge="1" parent="1">
          <mxGeometry width="50" height="50" relative="1" as="geometry">
            <mxPoint x="520" y="119.5" as="sourcePoint" />
            <mxPoint x="600" y="119.5" as="targetPoint" />
          </mxGeometry>
        </mxCell>
        <mxCell id="j30a4lDo0BElUTcS9kuQ-47" value="" style="endArrow=classic;html=1;rounded=0;exitX=0.5;exitY=0;exitDx=0;exitDy=0;entryX=0.5;entryY=1;entryDx=0;entryDy=0;" edge="1" parent="1">
          <mxGeometry width="50" height="50" relative="1" as="geometry">
            <mxPoint x="640" y="119.5" as="sourcePoint" />
            <mxPoint x="720" y="119.5" as="targetPoint" />
          </mxGeometry>
        </mxCell>
        <mxCell id="j30a4lDo0BElUTcS9kuQ-49" value="" style="endArrow=classic;html=1;rounded=0;entryX=0.5;entryY=0;entryDx=0;entryDy=0;" edge="1" parent="1" target="j30a4lDo0BElUTcS9kuQ-12">
          <mxGeometry width="50" height="50" relative="1" as="geometry">
            <mxPoint x="79.5" y="120" as="sourcePoint" />
            <mxPoint x="79.5" y="190" as="targetPoint" />
          </mxGeometry>
        </mxCell>
        <mxCell id="j30a4lDo0BElUTcS9kuQ-50" value="" style="endArrow=classic;html=1;rounded=0;entryX=0.5;entryY=0;entryDx=0;entryDy=0;" edge="1" parent="1">
          <mxGeometry width="50" height="50" relative="1" as="geometry">
            <mxPoint x="199.5" y="120" as="sourcePoint" />
            <mxPoint x="200" y="200" as="targetPoint" />
          </mxGeometry>
        </mxCell>
        <mxCell id="j30a4lDo0BElUTcS9kuQ-51" value="" style="endArrow=classic;html=1;rounded=0;entryX=0.5;entryY=0;entryDx=0;entryDy=0;" edge="1" parent="1">
          <mxGeometry width="50" height="50" relative="1" as="geometry">
            <mxPoint x="319.5" y="120" as="sourcePoint" />
            <mxPoint x="320" y="200" as="targetPoint" />
          </mxGeometry>
        </mxCell>
        <mxCell id="j30a4lDo0BElUTcS9kuQ-52" value="" style="endArrow=classic;html=1;rounded=0;entryX=0.5;entryY=0;entryDx=0;entryDy=0;" edge="1" parent="1">
          <mxGeometry width="50" height="50" relative="1" as="geometry">
            <mxPoint x="439.5" y="120" as="sourcePoint" />
            <mxPoint x="440" y="200" as="targetPoint" />
          </mxGeometry>
        </mxCell>
        <mxCell id="j30a4lDo0BElUTcS9kuQ-53" value="" style="endArrow=classic;html=1;rounded=0;entryX=0.5;entryY=0;entryDx=0;entryDy=0;" edge="1" parent="1">
          <mxGeometry width="50" height="50" relative="1" as="geometry">
            <mxPoint x="559.5" y="120" as="sourcePoint" />
            <mxPoint x="560" y="200" as="targetPoint" />
          </mxGeometry>
        </mxCell>
        <mxCell id="j30a4lDo0BElUTcS9kuQ-54" value="" style="endArrow=classic;html=1;rounded=0;entryX=0.5;entryY=0;entryDx=0;entryDy=0;" edge="1" parent="1">
          <mxGeometry width="50" height="50" relative="1" as="geometry">
            <mxPoint x="680" y="120" as="sourcePoint" />
            <mxPoint x="680.5" y="200" as="targetPoint" />
          </mxGeometry>
        </mxCell>
        <mxCell id="SrjhYOgRZ8nTV_Bw5yUi-1" value="" style="ellipse;whiteSpace=wrap;html=1;aspect=fixed;" vertex="1" parent="1">
          <mxGeometry x="777" y="200" width="50" height="50" as="geometry" />
        </mxCell>
        <mxCell id="SrjhYOgRZ8nTV_Bw5yUi-2" value="&lt;font style=&quot;font-size: 60px;&quot;&gt;*&lt;/font&gt;" style="text;html=1;align=center;verticalAlign=middle;whiteSpace=wrap;rounded=0;" vertex="1" parent="1">
          <mxGeometry x="772" y="223" width="60" height="30" as="geometry" />
        </mxCell>
        <mxCell id="SrjhYOgRZ8nTV_Bw5yUi-4" value="" style="endArrow=classic;html=1;rounded=0;exitX=0.5;exitY=1;exitDx=0;exitDy=0;entryX=0;entryY=0.5;entryDx=0;entryDy=0;" edge="1" parent="1" source="j30a4lDo0BElUTcS9kuQ-15" target="j30a4lDo0BElUTcS9kuQ-1">
          <mxGeometry width="50" height="50" relative="1" as="geometry">
            <mxPoint x="390" y="400" as="sourcePoint" />
            <mxPoint x="440" y="350" as="targetPoint" />
            <Array as="points">
              <mxPoint x="80" y="355" />
            </Array>
          </mxGeometry>
        </mxCell>
        <mxCell id="SrjhYOgRZ8nTV_Bw5yUi-6" value="" style="endArrow=classic;html=1;rounded=0;exitX=0.5;exitY=1;exitDx=0;exitDy=0;entryX=0.5;entryY=0;entryDx=0;entryDy=0;" edge="1" parent="1" source="j30a4lDo0BElUTcS9kuQ-18" target="j30a4lDo0BElUTcS9kuQ-1">
          <mxGeometry width="50" height="50" relative="1" as="geometry">
            <mxPoint x="390" y="400" as="sourcePoint" />
            <mxPoint x="440" y="350" as="targetPoint" />
          </mxGeometry>
        </mxCell>
        <mxCell id="SrjhYOgRZ8nTV_Bw5yUi-7" value="" style="endArrow=classic;html=1;rounded=0;exitX=0.5;exitY=1;exitDx=0;exitDy=0;entryX=0.5;entryY=0;entryDx=0;entryDy=0;" edge="1" parent="1">
          <mxGeometry width="50" height="50" relative="1" as="geometry">
            <mxPoint x="319.5" y="253" as="sourcePoint" />
            <mxPoint x="319.5" y="330" as="targetPoint" />
          </mxGeometry>
        </mxCell>
        <mxCell id="SrjhYOgRZ8nTV_Bw5yUi-8" value="" style="endArrow=classic;html=1;rounded=0;exitX=0.5;exitY=1;exitDx=0;exitDy=0;entryX=0.5;entryY=0;entryDx=0;entryDy=0;" edge="1" parent="1">
          <mxGeometry width="50" height="50" relative="1" as="geometry">
            <mxPoint x="439.5" y="253" as="sourcePoint" />
            <mxPoint x="439.5" y="330" as="targetPoint" />
          </mxGeometry>
        </mxCell>
        <mxCell id="SrjhYOgRZ8nTV_Bw5yUi-9" value="" style="endArrow=classic;html=1;rounded=0;exitX=0.5;exitY=1;exitDx=0;exitDy=0;entryX=0.5;entryY=0;entryDx=0;entryDy=0;" edge="1" parent="1">
          <mxGeometry width="50" height="50" relative="1" as="geometry">
            <mxPoint x="559.5" y="253" as="sourcePoint" />
            <mxPoint x="559.5" y="330" as="targetPoint" />
          </mxGeometry>
        </mxCell>
        <mxCell id="SrjhYOgRZ8nTV_Bw5yUi-10" value="" style="endArrow=classic;html=1;rounded=0;exitX=0.5;exitY=1;exitDx=0;exitDy=0;entryX=0.5;entryY=0;entryDx=0;entryDy=0;" edge="1" parent="1">
          <mxGeometry width="50" height="50" relative="1" as="geometry">
            <mxPoint x="679.5" y="250" as="sourcePoint" />
            <mxPoint x="679.5" y="327" as="targetPoint" />
          </mxGeometry>
        </mxCell>
        <mxCell id="SrjhYOgRZ8nTV_Bw5yUi-12" value="" style="endArrow=classic;html=1;rounded=0;exitX=1;exitY=0.5;exitDx=0;exitDy=0;" edge="1" parent="1" source="j30a4lDo0BElUTcS9kuQ-1">
          <mxGeometry width="50" height="50" relative="1" as="geometry">
            <mxPoint x="390" y="400" as="sourcePoint" />
            <mxPoint x="290" y="355" as="targetPoint" />
          </mxGeometry>
        </mxCell>
        <mxCell id="SrjhYOgRZ8nTV_Bw5yUi-13" value="" style="endArrow=classic;html=1;rounded=0;exitX=1;exitY=0.5;exitDx=0;exitDy=0;" edge="1" parent="1">
          <mxGeometry width="50" height="50" relative="1" as="geometry">
            <mxPoint x="347.5" y="354.8" as="sourcePoint" />
            <mxPoint x="412.5" y="354.8" as="targetPoint" />
          </mxGeometry>
        </mxCell>
        <mxCell id="SrjhYOgRZ8nTV_Bw5yUi-14" value="" style="endArrow=classic;html=1;rounded=0;exitX=1;exitY=0.5;exitDx=0;exitDy=0;" edge="1" parent="1">
          <mxGeometry width="50" height="50" relative="1" as="geometry">
            <mxPoint x="467.5" y="354.8" as="sourcePoint" />
            <mxPoint x="532.5" y="354.8" as="targetPoint" />
          </mxGeometry>
        </mxCell>
        <mxCell id="SrjhYOgRZ8nTV_Bw5yUi-15" value="" style="endArrow=classic;html=1;rounded=0;exitX=1;exitY=0.5;exitDx=0;exitDy=0;" edge="1" parent="1">
          <mxGeometry width="50" height="50" relative="1" as="geometry">
            <mxPoint x="587.5" y="354.8" as="sourcePoint" />
            <mxPoint x="652.5" y="354.8" as="targetPoint" />
          </mxGeometry>
        </mxCell>
        <mxCell id="SrjhYOgRZ8nTV_Bw5yUi-16" value="" style="endArrow=classic;html=1;rounded=0;exitX=1;exitY=0.5;exitDx=0;exitDy=0;" edge="1" parent="1">
          <mxGeometry width="50" height="50" relative="1" as="geometry">
            <mxPoint x="707" y="354.8" as="sourcePoint" />
            <mxPoint x="772" y="354.8" as="targetPoint" />
          </mxGeometry>
        </mxCell>
        <mxCell id="SrjhYOgRZ8nTV_Bw5yUi-18" value="" style="ellipse;whiteSpace=wrap;html=1;aspect=fixed;" vertex="1" parent="1">
          <mxGeometry x="895" y="200" width="50" height="50" as="geometry" />
        </mxCell>
        <mxCell id="SrjhYOgRZ8nTV_Bw5yUi-19" value="&lt;font style=&quot;font-size: 60px;&quot;&gt;*&lt;/font&gt;" style="text;html=1;align=center;verticalAlign=middle;whiteSpace=wrap;rounded=0;" vertex="1" parent="1">
          <mxGeometry x="890" y="223" width="60" height="30" as="geometry" />
        </mxCell>
        <mxCell id="SrjhYOgRZ8nTV_Bw5yUi-20" value="" style="endArrow=classic;html=1;rounded=0;exitX=0.5;exitY=1;exitDx=0;exitDy=0;entryX=0.5;entryY=0;entryDx=0;entryDy=0;" edge="1" parent="1" source="SrjhYOgRZ8nTV_Bw5yUi-19" target="j30a4lDo0BElUTcS9kuQ-10">
          <mxGeometry width="50" height="50" relative="1" as="geometry">
            <mxPoint x="919.76" y="247" as="sourcePoint" />
            <mxPoint x="919.76" y="324" as="targetPoint" />
          </mxGeometry>
        </mxCell>
        <mxCell id="SrjhYOgRZ8nTV_Bw5yUi-21" value="" style="endArrow=classic;html=1;rounded=0;exitX=1;exitY=0.5;exitDx=0;exitDy=0;entryX=0;entryY=0.5;entryDx=0;entryDy=0;" edge="1" parent="1" source="j30a4lDo0BElUTcS9kuQ-11" target="j30a4lDo0BElUTcS9kuQ-10">
          <mxGeometry width="50" height="50" relative="1" as="geometry">
            <mxPoint x="330" y="190" as="sourcePoint" />
            <mxPoint x="380" y="140" as="targetPoint" />
          </mxGeometry>
        </mxCell>
        <mxCell id="SrjhYOgRZ8nTV_Bw5yUi-22" value="" style="rounded=1;whiteSpace=wrap;html=1;direction=south;" vertex="1" parent="1">
          <mxGeometry x="840" y="80" width="40" height="80" as="geometry" />
        </mxCell>
        <mxCell id="SrjhYOgRZ8nTV_Bw5yUi-23" value="" style="endArrow=classic;html=1;rounded=0;exitX=0.5;exitY=0;exitDx=0;exitDy=0;" edge="1" parent="1" source="j30a4lDo0BElUTcS9kuQ-38" target="SrjhYOgRZ8nTV_Bw5yUi-22">
          <mxGeometry width="50" height="50" relative="1" as="geometry">
            <mxPoint x="550" y="270" as="sourcePoint" />
            <mxPoint x="600" y="220" as="targetPoint" />
          </mxGeometry>
        </mxCell>
        <mxCell id="SrjhYOgRZ8nTV_Bw5yUi-30" value="" style="endArrow=classic;html=1;rounded=0;entryX=0.5;entryY=0;entryDx=0;entryDy=0;" edge="1" parent="1" target="SrjhYOgRZ8nTV_Bw5yUi-1">
          <mxGeometry width="50" height="50" relative="1" as="geometry">
            <mxPoint x="800" y="120" as="sourcePoint" />
            <mxPoint x="760" y="130" as="targetPoint" />
          </mxGeometry>
        </mxCell>
        <mxCell id="SrjhYOgRZ8nTV_Bw5yUi-31" value="" style="rounded=1;whiteSpace=wrap;html=1;direction=south;" vertex="1" parent="1">
          <mxGeometry x="960" y="80" width="40" height="80" as="geometry" />
        </mxCell>
        <mxCell id="SrjhYOgRZ8nTV_Bw5yUi-32" value="" style="endArrow=classic;html=1;rounded=0;exitX=0.5;exitY=0;exitDx=0;exitDy=0;entryX=0.5;entryY=1;entryDx=0;entryDy=0;" edge="1" parent="1" source="SrjhYOgRZ8nTV_Bw5yUi-22" target="SrjhYOgRZ8nTV_Bw5yUi-31">
          <mxGeometry width="50" height="50" relative="1" as="geometry">
            <mxPoint x="490" y="190" as="sourcePoint" />
            <mxPoint x="540" y="140" as="targetPoint" />
          </mxGeometry>
        </mxCell>
        <mxCell id="SrjhYOgRZ8nTV_Bw5yUi-33" value="" style="endArrow=classic;html=1;rounded=0;entryX=0.5;entryY=0;entryDx=0;entryDy=0;" edge="1" parent="1" target="SrjhYOgRZ8nTV_Bw5yUi-18">
          <mxGeometry width="50" height="50" relative="1" as="geometry">
            <mxPoint x="920" y="120" as="sourcePoint" />
            <mxPoint x="770" y="170" as="targetPoint" />
          </mxGeometry>
        </mxCell>
        <mxCell id="SrjhYOgRZ8nTV_Bw5yUi-34" value="" style="endArrow=classic;html=1;rounded=0;exitX=0.5;exitY=1;exitDx=0;exitDy=0;entryX=0.5;entryY=0;entryDx=0;entryDy=0;" edge="1" parent="1" source="SrjhYOgRZ8nTV_Bw5yUi-2" target="j30a4lDo0BElUTcS9kuQ-11">
          <mxGeometry width="50" height="50" relative="1" as="geometry">
            <mxPoint x="800" y="310" as="sourcePoint" />
            <mxPoint x="850" y="260" as="targetPoint" />
          </mxGeometry>
        </mxCell>
        <mxCell id="SrjhYOgRZ8nTV_Bw5yUi-38" value="&lt;font style=&quot;font-size: 40px;&quot;&gt;+&lt;/font&gt;" style="ellipse;whiteSpace=wrap;html=1;aspect=fixed;" vertex="1" parent="1">
          <mxGeometry x="1015" y="330" width="50" height="50" as="geometry" />
        </mxCell>
        <mxCell id="SrjhYOgRZ8nTV_Bw5yUi-39" value="" style="ellipse;whiteSpace=wrap;html=1;aspect=fixed;" vertex="1" parent="1">
          <mxGeometry x="1015" y="197" width="50" height="50" as="geometry" />
        </mxCell>
        <mxCell id="SrjhYOgRZ8nTV_Bw5yUi-40" value="&lt;font style=&quot;font-size: 60px;&quot;&gt;*&lt;/font&gt;" style="text;html=1;align=center;verticalAlign=middle;whiteSpace=wrap;rounded=0;" vertex="1" parent="1">
          <mxGeometry x="1010" y="220" width="60" height="30" as="geometry" />
        </mxCell>
        <mxCell id="SrjhYOgRZ8nTV_Bw5yUi-41" value="" style="endArrow=classic;html=1;rounded=0;exitX=0.5;exitY=1;exitDx=0;exitDy=0;entryX=0.5;entryY=0;entryDx=0;entryDy=0;" edge="1" parent="1" source="SrjhYOgRZ8nTV_Bw5yUi-40" target="SrjhYOgRZ8nTV_Bw5yUi-38">
          <mxGeometry width="50" height="50" relative="1" as="geometry">
            <mxPoint x="1039.76" y="244" as="sourcePoint" />
            <mxPoint x="1039.76" y="321" as="targetPoint" />
          </mxGeometry>
        </mxCell>
        <mxCell id="SrjhYOgRZ8nTV_Bw5yUi-42" value="" style="endArrow=classic;html=1;rounded=0;exitX=1;exitY=0.5;exitDx=0;exitDy=0;entryX=0;entryY=0.5;entryDx=0;entryDy=0;" edge="1" parent="1" source="j30a4lDo0BElUTcS9kuQ-10" target="SrjhYOgRZ8nTV_Bw5yUi-38">
          <mxGeometry width="50" height="50" relative="1" as="geometry">
            <mxPoint x="1020" y="290" as="sourcePoint" />
            <mxPoint x="1070" y="240" as="targetPoint" />
          </mxGeometry>
        </mxCell>
        <mxCell id="SrjhYOgRZ8nTV_Bw5yUi-43" value="" style="endArrow=classic;html=1;rounded=0;exitX=0.5;exitY=0;exitDx=0;exitDy=0;entryX=0.5;entryY=0;entryDx=0;entryDy=0;" edge="1" parent="1" source="SrjhYOgRZ8nTV_Bw5yUi-31" target="SrjhYOgRZ8nTV_Bw5yUi-39">
          <mxGeometry width="50" height="50" relative="1" as="geometry">
            <mxPoint x="970" y="270" as="sourcePoint" />
            <mxPoint x="1020" y="220" as="targetPoint" />
            <Array as="points">
              <mxPoint x="1040" y="120" />
            </Array>
          </mxGeometry>
        </mxCell>
        <mxCell id="SrjhYOgRZ8nTV_Bw5yUi-44" value="" style="endArrow=classic;html=1;rounded=0;exitX=1;exitY=0.5;exitDx=0;exitDy=0;" edge="1" parent="1" source="SrjhYOgRZ8nTV_Bw5yUi-38">
          <mxGeometry width="50" height="50" relative="1" as="geometry">
            <mxPoint x="890" y="320" as="sourcePoint" />
            <mxPoint x="1130" y="355" as="targetPoint" />
          </mxGeometry>
        </mxCell>
        <mxCell id="SrjhYOgRZ8nTV_Bw5yUi-45" value="" style="endArrow=classic;html=1;rounded=0;" edge="1" parent="1">
          <mxGeometry width="50" height="50" relative="1" as="geometry">
            <mxPoint x="30" y="270" as="sourcePoint" />
            <mxPoint x="55" y="240" as="targetPoint" />
          </mxGeometry>
        </mxCell>
        <mxCell id="SrjhYOgRZ8nTV_Bw5yUi-46" value="B" style="edgeLabel;html=1;align=center;verticalAlign=middle;resizable=0;points=[];" connectable="0" vertex="1" parent="SrjhYOgRZ8nTV_Bw5yUi-45">
          <mxGeometry x="-0.065" y="-4" relative="1" as="geometry">
            <mxPoint x="1" as="offset" />
          </mxGeometry>
        </mxCell>
        <mxCell id="SrjhYOgRZ8nTV_Bw5yUi-63" value="&lt;font style=&quot;font-size: 14px;&quot;&gt;B0&lt;/font&gt;" style="edgeLabel;html=1;align=center;verticalAlign=middle;resizable=0;points=[];" connectable="0" vertex="1" parent="SrjhYOgRZ8nTV_Bw5yUi-45">
          <mxGeometry x="0.0433" y="-3" relative="1" as="geometry">
            <mxPoint as="offset" />
          </mxGeometry>
        </mxCell>
        <mxCell id="SrjhYOgRZ8nTV_Bw5yUi-47" value="" style="endArrow=classic;html=1;rounded=0;" edge="1" parent="1">
          <mxGeometry width="50" height="50" relative="1" as="geometry">
            <mxPoint x="150" y="270" as="sourcePoint" />
            <mxPoint x="175" y="240" as="targetPoint" />
          </mxGeometry>
        </mxCell>
        <mxCell id="SrjhYOgRZ8nTV_Bw5yUi-48" value="&lt;font style=&quot;font-size: 15px;&quot;&gt;B1&lt;/font&gt;" style="edgeLabel;html=1;align=center;verticalAlign=middle;resizable=0;points=[];" connectable="0" vertex="1" parent="SrjhYOgRZ8nTV_Bw5yUi-47">
          <mxGeometry x="-0.065" y="-4" relative="1" as="geometry">
            <mxPoint x="1" as="offset" />
          </mxGeometry>
        </mxCell>
        <mxCell id="SrjhYOgRZ8nTV_Bw5yUi-49" value="" style="endArrow=classic;html=1;rounded=0;" edge="1" parent="1">
          <mxGeometry width="50" height="50" relative="1" as="geometry">
            <mxPoint x="280" y="277" as="sourcePoint" />
            <mxPoint x="305" y="247" as="targetPoint" />
          </mxGeometry>
        </mxCell>
        <mxCell id="SrjhYOgRZ8nTV_Bw5yUi-50" value="&lt;font style=&quot;font-size: 15px;&quot;&gt;B2&lt;/font&gt;" style="edgeLabel;html=1;align=center;verticalAlign=middle;resizable=0;points=[];" connectable="0" vertex="1" parent="SrjhYOgRZ8nTV_Bw5yUi-49">
          <mxGeometry x="-0.065" y="-4" relative="1" as="geometry">
            <mxPoint x="1" as="offset" />
          </mxGeometry>
        </mxCell>
        <mxCell id="SrjhYOgRZ8nTV_Bw5yUi-51" value="" style="endArrow=classic;html=1;rounded=0;" edge="1" parent="1">
          <mxGeometry width="50" height="50" relative="1" as="geometry">
            <mxPoint x="401" y="277" as="sourcePoint" />
            <mxPoint x="426" y="247" as="targetPoint" />
          </mxGeometry>
        </mxCell>
        <mxCell id="SrjhYOgRZ8nTV_Bw5yUi-52" value="&lt;font style=&quot;font-size: 15px;&quot;&gt;B3&lt;/font&gt;" style="edgeLabel;html=1;align=center;verticalAlign=middle;resizable=0;points=[];" connectable="0" vertex="1" parent="SrjhYOgRZ8nTV_Bw5yUi-51">
          <mxGeometry x="-0.065" y="-4" relative="1" as="geometry">
            <mxPoint x="1" as="offset" />
          </mxGeometry>
        </mxCell>
        <mxCell id="SrjhYOgRZ8nTV_Bw5yUi-53" value="" style="endArrow=classic;html=1;rounded=0;" edge="1" parent="1">
          <mxGeometry width="50" height="50" relative="1" as="geometry">
            <mxPoint x="520" y="277" as="sourcePoint" />
            <mxPoint x="545" y="247" as="targetPoint" />
          </mxGeometry>
        </mxCell>
        <mxCell id="SrjhYOgRZ8nTV_Bw5yUi-54" value="&lt;font style=&quot;font-size: 15px;&quot;&gt;B4&lt;/font&gt;" style="edgeLabel;html=1;align=center;verticalAlign=middle;resizable=0;points=[];" connectable="0" vertex="1" parent="SrjhYOgRZ8nTV_Bw5yUi-53">
          <mxGeometry x="-0.065" y="-4" relative="1" as="geometry">
            <mxPoint x="1" as="offset" />
          </mxGeometry>
        </mxCell>
        <mxCell id="SrjhYOgRZ8nTV_Bw5yUi-55" value="" style="endArrow=classic;html=1;rounded=0;" edge="1" parent="1">
          <mxGeometry width="50" height="50" relative="1" as="geometry">
            <mxPoint x="640" y="270" as="sourcePoint" />
            <mxPoint x="665" y="240" as="targetPoint" />
          </mxGeometry>
        </mxCell>
        <mxCell id="SrjhYOgRZ8nTV_Bw5yUi-56" value="&lt;font style=&quot;font-size: 15px;&quot;&gt;B5&lt;/font&gt;" style="edgeLabel;html=1;align=center;verticalAlign=middle;resizable=0;points=[];" connectable="0" vertex="1" parent="SrjhYOgRZ8nTV_Bw5yUi-55">
          <mxGeometry x="-0.065" y="-4" relative="1" as="geometry">
            <mxPoint x="1" as="offset" />
          </mxGeometry>
        </mxCell>
        <mxCell id="SrjhYOgRZ8nTV_Bw5yUi-57" value="" style="endArrow=classic;html=1;rounded=0;" edge="1" parent="1">
          <mxGeometry width="50" height="50" relative="1" as="geometry">
            <mxPoint x="760" y="277" as="sourcePoint" />
            <mxPoint x="785" y="247" as="targetPoint" />
          </mxGeometry>
        </mxCell>
        <mxCell id="SrjhYOgRZ8nTV_Bw5yUi-58" value="&lt;font style=&quot;font-size: 15px;&quot;&gt;B6&lt;/font&gt;" style="edgeLabel;html=1;align=center;verticalAlign=middle;resizable=0;points=[];" connectable="0" vertex="1" parent="SrjhYOgRZ8nTV_Bw5yUi-57">
          <mxGeometry x="-0.065" y="-4" relative="1" as="geometry">
            <mxPoint x="1" as="offset" />
          </mxGeometry>
        </mxCell>
        <mxCell id="SrjhYOgRZ8nTV_Bw5yUi-59" value="" style="endArrow=classic;html=1;rounded=0;" edge="1" parent="1">
          <mxGeometry width="50" height="50" relative="1" as="geometry">
            <mxPoint x="880" y="277" as="sourcePoint" />
            <mxPoint x="905" y="247" as="targetPoint" />
          </mxGeometry>
        </mxCell>
        <mxCell id="SrjhYOgRZ8nTV_Bw5yUi-60" value="&lt;font style=&quot;font-size: 15px;&quot;&gt;B7&lt;/font&gt;" style="edgeLabel;html=1;align=center;verticalAlign=middle;resizable=0;points=[];" connectable="0" vertex="1" parent="SrjhYOgRZ8nTV_Bw5yUi-59">
          <mxGeometry x="-0.065" y="-4" relative="1" as="geometry">
            <mxPoint x="1" as="offset" />
          </mxGeometry>
        </mxCell>
        <mxCell id="SrjhYOgRZ8nTV_Bw5yUi-61" value="" style="endArrow=classic;html=1;rounded=0;" edge="1" parent="1">
          <mxGeometry width="50" height="50" relative="1" as="geometry">
            <mxPoint x="1000" y="270" as="sourcePoint" />
            <mxPoint x="1025" y="247" as="targetPoint" />
          </mxGeometry>
        </mxCell>
        <mxCell id="SrjhYOgRZ8nTV_Bw5yUi-62" value="&lt;font style=&quot;font-size: 15px;&quot;&gt;B8&lt;/font&gt;" style="edgeLabel;html=1;align=center;verticalAlign=middle;resizable=0;points=[];" connectable="0" vertex="1" parent="SrjhYOgRZ8nTV_Bw5yUi-61">
          <mxGeometry x="-0.065" y="-4" relative="1" as="geometry">
            <mxPoint x="1" as="offset" />
          </mxGeometry>
        </mxCell>
        <mxCell id="pptO5P2guZD6jyKJaSnr-1" value="&lt;span style=&quot;font-size: 22px;&quot;&gt;X [n]&lt;/span&gt;" style="text;html=1;align=center;verticalAlign=middle;resizable=0;points=[];autosize=1;strokeColor=none;fillColor=none;" vertex="1" parent="1">
          <mxGeometry x="25" y="75" width="70" height="40" as="geometry" />
        </mxCell>
        <mxCell id="pptO5P2guZD6jyKJaSnr-2" value="&lt;span style=&quot;font-size: 22px;&quot;&gt;Y [n]&lt;/span&gt;" style="text;html=1;align=center;verticalAlign=middle;resizable=0;points=[];autosize=1;strokeColor=none;fillColor=none;" vertex="1" parent="1">
          <mxGeometry x="1065" y="310" width="70" height="40" as="geometry" />
        </mxCell>
      </root>
    </mxGraphModel>
  </diagram>
</mxfile>
